<?xml version="1.0" encoding="utf-8"?>
<!-- Generator: Adobe Illustrator 16.0.4, SVG Export Plug-In . SVG Version: 6.00 Build 0)  -->
<!DOCTYPE svg PUBLIC "-//W3C//DTD SVG 1.1//EN" "http://www.w3.org/Graphics/SVG/1.1/DTD/svg11.dtd">
<svg version="1.1" id="Logo" xmlns="http://www.w3.org/2000/svg" xmlns:xlink="http://www.w3.org/1999/xlink" x="0px" y="0px"
	 width="340.157px" height="80.127px" viewBox="0 0 340.157 80.127" enable-background="new 0 0 340.157 80.127"
	 xml:space="preserve">
<rect x="116.843" y="59.639" fill="none" width="175.319" height="22.533"/>
<text id="claim_x5F_font" transform="matrix(1 0 0 1 116.8428 73.1284)" display="none" fill="#FFFFFF" font-family="'FrutigerBQ-Roman'" font-size="19">Mehr als Technik</text>
<path id="Bauknecht" fill-rule="evenodd" clip-rule="evenodd" d="M237.576,36.465c0.234-2.34,0.933-3.28,3.28-3.28h0.931
	c2.346,0,2.58,0.939,2.346,3.28l-0.709,4.914h-6.552L237.576,36.465z M235.937,28.504c-4.214,0-6.791,2.107-7.492,7.023
	l-2.103,14.511c-0.706,4.915,1.404,7.029,5.613,7.029h18.26l0.704-5.625h-12.41c-2.338,0-3.041-0.934-2.338-4.444h15.453
	l1.635-11.471c0.706-4.917-1.404-7.023-5.613-7.023H235.937z M265.434,28.504c-4.212,0-6.791,2.107-7.492,7.023l-2.105,14.511
	c-0.704,4.915,1.404,7.029,5.616,7.029h13.345l0.703-5.625h-7.492c-2.34,0-3.043-0.934-2.574-3.277l1.639-10.763
	c0.47-2.343,1.168-3.278,3.513-3.278h7.487l0.704-5.621H265.434z M101.816,48.165c0.465-3.05,1.402-4.21,3.742-4.21h3.509
	l-1.166,7.486h-3.513C102.049,51.441,101.58,50.506,101.816,48.165z M96.195,28.503l-0.703,5.62h11.706
	c2.343,0,3.273,0.938,2.577,4.209h-9.366c-4.214,0-6.554,2.103-7.255,6.088l-0.94,5.379c-0.933,5.386,2.812,7.497,7.025,7.497
	c4.448,0,5.384-0.474,8.896-3.98c0,3.038,1.64,3.748,5.149,3.748h7.492l0.699-5.622h-4.214l2.343-16.619
	c0.698-4.913-1.405-6.319-5.621-6.319H96.195z M144.656,28.503l-3.283,22.938h-3.975c-2.348,0-2.812-0.935-2.58-3.276l1.874-13.343
	c0.706-4.913-1.407-6.319-5.618-6.319h-7.019l-0.708,5.62c3.513,0,3.984,0.938,3.513,4.442l-1.64,11.705
	c-0.698,4.916,1.405,7.026,5.621,7.026c5.149,0,5.384-0.233,10.302-3.98c0,3.038,1.634,3.748,5.146,3.748h8.428l0.701-5.622
	c-3.977,0-4.446-0.935-3.977-4.446l2.574-18.492H144.656z M205.734,32.249c0-3.039-1.637-3.745-5.147-3.745h-8.428l-0.7,5.621
	c3.979,0,4.448,0.936,3.979,4.446l-2.577,18.497h9.366l3.278-22.942h3.975c2.347,0,2.813,0.936,2.577,3.278l-1.869,12.635
	c-0.708,4.915,1.407,7.029,5.613,7.029h7.028l0.701-5.625c-3.511,0-3.978-0.934-3.511-4.444l1.64-11.704
	c0.698-4.918-1.407-7.024-5.624-7.024C210.889,28.271,210.651,28.504,205.734,32.249z M317.873,21.018l-1.17,7.486h-4.219
	l-0.699,5.621h4.209l-2.335,15.914c-0.704,4.915,1.404,7.029,5.613,7.029h7.964l0.701-5.625h-2.106
	c-2.343,0-2.809-0.934-2.577-3.277l2.108-14.041h3.745l0.701-5.621h-3.74l1.168-7.486H317.873z M65.996,42.779h8.659
	c2.343,0,3.044,0.933,2.579,3.282l-1.175,6.787c-0.464,2.338-0.931,3.273-3.273,3.273h-8.662L65.996,42.779z M68.572,24.051h8.662
	c2.338,0,3.042,0.94,2.575,3.283l-0.938,5.615c-0.466,2.343-1.172,3.278-3.51,3.278h-8.66L68.572,24.051z M53.352,17.729
	l-0.933,6.322h2.105c3.513,0,3.745,0.94,3.278,4.452l-3.278,23.172c-0.464,3.51-0.931,4.446-4.448,4.446h-2.104l-0.936,6.323h30.662
	c4.45,0,7.731-2.108,8.19-6.323l1.409-10.767c0.467-3.75-1.172-5.385-3.28-6.082c2.348-0.708,4.219-2.346,4.92-6.09l1.173-7.255
	c0.933-6.321-1.41-8.199-7.258-8.199H53.352z M280.649,16.564l-0.706,5.622c3.516,0,3.75,0.938,3.281,4.447l-4.217,30.435h9.371
	l3.273-22.942h3.979c2.341,0,2.812,0.936,2.575,3.278l-1.876,12.635c-0.699,4.915,1.406,7.029,5.621,7.029h7.022l0.706-5.625
	c-3.516,0-3.981-0.934-3.516-4.444l1.64-11.704c0.703-4.918-1.404-7.024-5.616-7.024c-5.149,0-5.387,0.233-10.301,3.978l1.168-9.358
	c0.705-4.918-1.402-6.327-5.616-6.327H280.649z M160.106,16.56l-0.706,5.619c3.513,0,3.745,0.94,3.276,4.451l-4.209,30.434h9.358
	l2.11-14.984h2.574c2.343,0,3.272,1.169,2.81,3.746l-0.706,4.211c-0.934,5.621,3.279,7.027,6.792,7.027h5.851l0.703-5.622
	c-3.515,0-3.981-0.466-3.747-2.812l0.704-5.147c0.466-4.209-1.642-5.62-4.448-5.62h-2.338l4.917-3.74h4.912l0.699-5.62h-2.805
	c-3.747,0-5.853,1.639-8.43,3.983L170.4,39.04l2.11-16.156c0.704-4.917-1.404-6.324-5.618-6.324H160.106z M14.025,43.712
	c0,19.201,17.793,34.415,44.244,34.415c18.265,0,36.521-6.555,47.058-16.622h-7.26c-9.366,6.553-20.601,10.301-33.239,10.301
	c-20.601,0-33.942-12.406-33.942-28.324c0-19.431,20.128-35.815,44.007-35.815c12.641,0,24.584,5.388,32.071,16.384h6.09
	C106.265,10.945,90.111,1.348,69.978,1.348C40.246,1.348,14.025,20.304,14.025,43.712z"/>
</svg>
