<?xml version="1.0" encoding="UTF-8"?>
<svg id="Layer_1" data-name="Layer 1" xmlns="http://www.w3.org/2000/svg" viewBox="0 0 5076.06 757.29">
  <defs>
    <style>
      .cls-1 {
        fill: #fff;
      }

      .cls-2 {
        fill: #a50034;
      }

      .cls-3 {
        fill: #6b6b6b;
      }
    </style>
  </defs>
  <path class="cls-2" d="M378.64,757.29c209.16,0,378.64-169.65,378.64-378.7S587.8,0,378.64,0,0,169.44,0,378.59s169.54,378.7,378.64,378.7"/>
  <polygon class="cls-1" points="363.61 212.41 363.61 544.34 469.1 544.34 469.1 514.79 393.73 514.79 393.73 212.41 363.61 212.41"/>
  <path class="cls-1" d="M257.77,303.02c25.12,0,45.46-20.35,45.46-45.34s-20.35-45.47-45.46-45.47-45.32,20.36-45.32,45.47,20.4,45.34,45.32,45.34"/>
  <path class="cls-1" d="M393.73,61.79c-3.87-.17-11.42-.28-15.06-.28-174.68,0-316.86,142.22-316.86,317,0,84.67,32.88,164.18,92.64,224.03,60.07,59.89,139.7,92.82,224.22,92.82s164.18-32.93,224.24-92.82c59.71-59.85,92.6-139.36,92.6-224.03v-14.47l-12.63.1h-213.55v29.42h196.11v4.26c-10.07,149.47-134.84,267.96-286.77,267.96-76.71,0-148.83-29.86-203.1-84.1-54.3-54.26-84.19-126.44-84.19-203.16s29.89-148.93,84.19-203.15c54.27-54.37,126.4-84.21,203.1-84.21,3.47,0,11.62.07,15.06.15v-29.51Z"/>
  <polygon class="cls-3" points="1039.65 131.77 926.56 131.77 926.56 621.32 1273.95 621.32 1273.95 526 1039.65 526 1039.65 131.77"/>
  <path class="cls-3" d="M1522.74,434.74h92.04v85.56c-16.92,6.49-50.01,12.99-81.5,12.99-101.82,0-135.76-51.74-135.76-156.77s32.28-159.14,134.09-159.14c56.54,0,88.88,17.79,115.51,51.7l70.34-64.57c-42.83-61.41-118-80-188.28-80-158.35,0-241.58,86.43-241.58,251.19s75.13,252.85,240.78,252.85c75.9,0,150.23-19.36,190.67-47.65v-237.49h-196.31v91.32Z"/>
  <path class="cls-3" d="M1890.95,132.26v488.5h326.76v-84.94h-226.4v-125.28h210.94v-82.87h-210.94v-111.86h218.35v-83.54h-318.71ZM2256.03,620.76h98.31V130.29h-98.31v490.47ZM2702.08,437.37c0-97.03-43.78-164.92-152.27-164.92s-165.05,64.61-165.05,176.46c0,118.58,43.14,179.91,169.72,179.91,60.02,0,115.22-18.2,141.51-35.65l-18.19-64.08c-28.96,14.8-71.45,25.63-105.72,25.63s-59.99-10.09-70.79-21.61c-12.79-14.12-18.79-37.03-18.79-60.6h219.58v-35.15ZM2605.7,409.86h-123.2c1.31-47.15,24.16-70.08,64.61-70.08,44.55,0,58.59,28.95,58.59,70.08M3026.68,317.5c-23.6-24.28-69.41-43.14-120.63-43.14-119.26,0-175.8,53.9-175.8,178.52s45.13,177.16,172.43,177.16c52.56,0,97.7-12.75,122.64-28.25l-20.22-67.4c-24.9,12.16-56.59,20.89-93.6,20.89-52.56,0-86.26-28.95-86.26-101.01,0-78.15,28.96-107.15,81.52-107.15,28.93,0,53.83,12.13,70.05,26.97l49.89-56.59ZM3318.09,281.11h-113.9v-81.47l-96.33,15.92v65.55h-58.62v76.2h58.62v149.55c0,89.6,27.61,121.95,105.76,121.95,43.82,0,85.59-9.44,117.86-26.96l-14.12-70.09c-20.86,10.82-48.52,16.88-68.01,16.88-33.03,0-45.16-10.82-45.16-53.9v-136.78h113.9v-76.86ZM3366.46,281.11v339.65h97.67v-233.83c16.85-21.5,47.79-35.04,79.48-35.04,17.55,0,37.04,4.73,47.8,10.77l22.29-78.82c-14.86-8.07-39.75-11.39-62.65-11.39-33.03,0-73.96,14.75-94.86,42.39l.03-33.73h-89.77ZM3781.87,272.45c-124.02,0-176.56,58.57-176.56,177.12,0,111.21,37.78,179.24,162.42,179.24s177.15-57.27,177.15-175.85-37.7-180.51-163.01-180.51M3845.88,446.92c0,78.16-14.85,111.15-76.16,111.15-51.21,0-65.32-39.77-65.32-107.81,0-76.78,16.14-107.15,75.44-107.15,54.56,0,66.04,40.5,66.04,103.81M3980.02,281.11v339.65h97.67v-250c12.16-8.77,36.41-17.52,56.65-17.52,47.8,0,57.88,18.9,57.88,56.62v210.9h97.69v-234.47c0-68.07-24.24-113.2-105.76-113.2-37.74,0-77.59,9.4-112.61,31.01v-22.99h-91.52ZM4337.65,207.72h99.04v-78.77h-99.04v78.77ZM4338.4,620.76h97.66v-339.59h-97.66v339.59ZM4765.48,316.21c-23.55-24.28-69.36-43.12-120.57-43.12-119.22,0-175.82,53.88-175.82,178.52s45.14,177.2,172.44,177.2c52.51,0,97.72-12.81,122.61-28.31l-20.19-67.39c-24.95,12.17-56.55,20.91-93.66,20.91-52.56,0-86.23-28.95-86.23-101.06,0-78.13,28.96-107.14,81.54-107.14,28.99,0,53.83,12.14,70.09,26.96l49.79-56.57ZM5073.42,302.75c-39.81-18.23-78.15-29.66-133.38-29.66-95.03,0-145.52,40.39-145.52,103.11s41.04,92.93,93.63,105.06l38.38,8.75c34.36,7.45,55.93,18.89,55.93,35.72,0,20.92-21.58,31.68-52.51,31.68-39.08,0-84.94-12.81-113.22-28.98l-24.95,70c34.37,18.25,77.51,31.79,137.45,31.79,90.92,0,146.83-35.82,146.83-110.59,0-49.82-30.92-78.12-72.02-90.27-11.46-3.36-32.37-9.42-47.18-12.75-35.71-7.45-71.48-14.88-71.48-41.79,0-20.22,21.62-31.01,56.65-31.01,39.08,0,76.83,10.12,103.73,24.9l27.66-65.97Z"/>
</svg>